<svg id="a1a26cfa-488e-41c1-89ba-2745be045f0e" data-name="Capa 1" xmlns="http://www.w3.org/2000/svg" viewBox="0 0 236.8 152.15"><defs><style>.b41f0828-92d7-4dff-b1cb-78539c125f1d{fill:#56a743;}</style></defs><path class="b41f0828-92d7-4dff-b1cb-78539c125f1d" d="M216.5,477.32l-30.42-50.13a13.56,13.56,0,0,1-.06-13.95l29.43-49.51h14.88l-28.59,49.71a13.54,13.54,0,0,0,.07,13.62l29.57,50.26Z" transform="translate(-184.12 -344.44)"/><path class="b41f0828-92d7-4dff-b1cb-78539c125f1d" d="M286.18,477.32H252a13.85,13.85,0,0,1-12-7L217.46,431a21.15,21.15,0,0,1,.21-21.32l23.61-39.5c2.33-3.9,7.76-6.31,11.09-6.31l29.7-.16-2.82,7.68a8,8,0,0,1-7.47,5.24l-12.65.11a13,13,0,0,0-11.21,6.52L232.64,409.9a21.12,21.12,0,0,0-.11,20.8l14.88,26.64a13.83,13.83,0,0,0,12.07,7.08H291Z" transform="translate(-184.12 -344.44)"/><path class="b41f0828-92d7-4dff-b1cb-78539c125f1d" d="M302.65,496.58H289.08l26-77.88a3.22,3.22,0,0,0-3-4.27l-14.12-.08,4.46-12.9,22,.16A8.44,8.44,0,0,1,332.22,413Z" transform="translate(-184.12 -344.44)"/><path class="b41f0828-92d7-4dff-b1cb-78539c125f1d" d="M388.54,363.7,419,413.83a13.56,13.56,0,0,1,.07,13.95l-29.44,49.51H374.7l28.59-49.7a13.56,13.56,0,0,0-.06-13.63L373.66,363.7Z" transform="translate(-184.12 -344.44)"/><path class="b41f0828-92d7-4dff-b1cb-78539c125f1d" d="M318.85,363.7h34.2a13.82,13.82,0,0,1,12,7L387.57,410a21.12,21.12,0,0,1-.2,21.32l-23.61,39.49c-2.34,3.9-7.77,6.31-11.09,6.31l-29.7.16,2.81-7.68a8,8,0,0,1,7.47-5.23l12.66-.12a13,13,0,0,0,11.2-6.52l15.28-26.65a21.12,21.12,0,0,0,.12-20.8l-14.88-26.64a13.83,13.83,0,0,0-12.07-7.08H314.08Z" transform="translate(-184.12 -344.44)"/><path class="b41f0828-92d7-4dff-b1cb-78539c125f1d" d="M302.39,344.44H316l-26,77.88a3.22,3.22,0,0,0,3,4.27l14.12.09-4.46,12.89-22-.16A8.44,8.44,0,0,1,272.81,428Z" transform="translate(-184.12 -344.44)"/></svg>